<svg width="18" height="19" viewBox="0 0 18 19" fill="none" xmlns="http://www.w3.org/2000/svg">
<g clip-path="url(#clip0_428_5244)">
<path opacity="0.5" d="M15.75 6.48395V3.48395C15.75 2.96061 15.75 2.69895 15.6854 2.48602C15.54 2.00662 15.1649 1.63146 14.6855 1.48604C14.4725 1.42145 14.2109 1.42145 13.6875 1.42145C13.1641 1.42145 12.9025 1.42145 12.6895 1.48604C12.2101 1.63146 11.835 2.00662 11.6896 2.48602C11.625 2.69895 11.625 2.96061 11.625 3.48395V6.48395C11.625 7.0073 11.625 7.26897 11.6896 7.4819C11.835 7.9613 12.2101 8.33645 12.6895 8.48187C12.9025 8.54645 13.1641 8.54645 13.6875 8.54645C14.2109 8.54645 14.4725 8.54645 14.6855 8.48187C15.1649 8.33645 15.54 7.9613 15.6854 7.4819C15.75 7.26897 15.75 7.0073 15.75 6.48395Z" fill="#141B34"/>
<path opacity="0.5" d="M6.375 7.79645H5.25C3.83579 7.79645 3.12868 7.79645 2.68934 8.2358C2.25 8.67515 2.25 9.38225 2.25 10.7964V11.9214C2.25 13.3356 2.25 14.0427 2.68934 14.4821C3.12868 14.9214 3.83579 14.9214 5.25 14.9214H6.375C7.7892 14.9214 8.4963 14.9214 8.93565 14.4821C9.375 14.0427 9.375 13.3356 9.375 11.9214V10.7964C9.375 9.38225 9.375 8.67515 8.93565 8.2358C8.4963 7.79645 7.7892 7.79645 6.375 7.79645Z" fill="#141B34"/>
<path d="M7.3125 1.42145H4.3125C3.78917 1.42145 3.5275 1.42145 3.31457 1.48604C2.83517 1.63146 2.46001 2.00662 2.31459 2.48602C2.25 2.69895 2.25 2.96061 2.25 3.48395C2.25 4.00728 2.25 4.26895 2.31459 4.48188C2.46001 4.96128 2.83517 5.33643 3.31457 5.48186C3.5275 5.54645 3.78917 5.54645 4.3125 5.54645H7.3125C7.83585 5.54645 8.09753 5.54645 8.31045 5.48186C8.78985 5.33643 9.165 4.96128 9.31043 4.48188C9.375 4.26895 9.375 4.00728 9.375 3.48395C9.375 2.96061 9.375 2.69895 9.31043 2.48602C9.165 2.00662 8.78985 1.63146 8.31045 1.48604C8.09753 1.42145 7.83585 1.42145 7.3125 1.42145Z" stroke="#827F7F" stroke-linejoin="round"/>
<path d="M15.75 6.48395V3.48395C15.75 2.96061 15.75 2.69895 15.6854 2.48602C15.54 2.00662 15.1649 1.63146 14.6855 1.48604C14.4725 1.42145 14.2109 1.42145 13.6875 1.42145C13.1641 1.42145 12.9025 1.42145 12.6895 1.48604C12.2101 1.63146 11.835 2.00662 11.6896 2.48602C11.625 2.69895 11.625 2.96061 11.625 3.48395V6.48395C11.625 7.0073 11.625 7.26897 11.6896 7.4819C11.835 7.9613 12.2101 8.33645 12.6895 8.48187C12.9025 8.54645 13.1641 8.54645 13.6875 8.54645C14.2109 8.54645 14.4725 8.54645 14.6855 8.48187C15.1649 8.33645 15.54 7.9613 15.6854 7.4819C15.75 7.26897 15.75 7.0073 15.75 6.48395Z" stroke="#BEBEBE" stroke-linejoin="round"/>
<path d="M12.6895 14.8569C12.9025 14.9214 13.1641 14.9214 13.6875 14.9214C14.2109 14.9214 14.4725 14.9214 14.6855 14.8569C15.1649 14.7114 15.54 14.3363 15.6854 13.8569C15.75 13.644 15.75 13.3823 15.75 12.8589C15.75 12.3356 15.75 12.0739 15.6854 11.861C15.54 11.3816 15.1649 11.0064 14.6855 10.861C14.4725 10.7964 14.2109 10.7964 13.6875 10.7964C13.1641 10.7964 12.9025 10.7964 12.6895 10.861C12.2101 11.0064 11.835 11.3816 11.6896 11.861C11.625 12.0739 11.625 12.3356 11.625 12.8589C11.625 13.3823 11.625 13.644 11.6896 13.8569C11.835 14.3363 12.2101 14.7114 12.6895 14.8569Z" stroke="#827F7F" stroke-linejoin="round"/>
<path d="M6.375 7.79645H5.25C3.83579 7.79645 3.12868 7.79645 2.68934 8.2358C2.25 8.67515 2.25 9.38225 2.25 10.7964V11.9214C2.25 13.3356 2.25 14.0427 2.68934 14.4821C3.12868 14.9214 3.83579 14.9214 5.25 14.9214H6.375C7.7892 14.9214 8.4963 14.9214 8.93565 14.4821C9.375 14.0427 9.375 13.3356 9.375 11.9214V10.7964C9.375 9.38225 9.375 8.67515 8.93565 8.2358C8.4963 7.79645 7.7892 7.79645 6.375 7.79645Z" stroke="#BEBEBE" stroke-linejoin="round"/>
</g>
<defs>
<clipPath id="clip0_428_5244">
<rect width="18" height="18" fill="white" transform="translate(0 0.456116)"/>
</clipPath>
</defs>
</svg>
