<svg width="24" height="25" viewBox="0 0 24 25" fill="none" xmlns="http://www.w3.org/2000/svg">
<g clip-path="url(#clip0_428_5206)">
<path d="M9.59372 1.11133C9.68372 0.569326 10.1537 0.171326 10.7037 0.171326H13.2967C13.8467 0.171326 14.3167 0.569326 14.4067 1.11133L14.6197 2.39233C14.6827 2.76633 14.9327 3.07833 15.2647 3.26233C15.3387 3.30233 15.4117 3.34533 15.4847 3.38933C15.8097 3.58533 16.2047 3.64633 16.5597 3.51333L17.7767 3.05733C18.0261 2.96353 18.3007 2.9613 18.5516 3.05104C18.8025 3.14077 19.0134 3.31664 19.1467 3.54733L20.4427 5.79433C20.5758 6.02503 20.6227 6.29546 20.5751 6.55749C20.5275 6.81953 20.3884 7.05617 20.1827 7.22533L19.1797 8.05233C18.8867 8.29333 18.7417 8.66533 18.7497 9.04433C18.7511 9.12932 18.7511 9.21433 18.7497 9.29933C18.7417 9.67733 18.8867 10.0493 19.1797 10.2903L20.1837 11.1173C20.6077 11.4673 20.7177 12.0723 20.4437 12.5473L19.1457 14.7943C19.0126 15.025 18.8019 15.2009 18.5512 15.2908C18.3005 15.3807 18.0261 15.3788 17.7767 15.2853L16.5597 14.8293C16.2047 14.6963 15.8097 14.7573 15.4837 14.9533C15.4112 14.9974 15.3379 15.0401 15.2637 15.0813C14.9327 15.2643 14.6827 15.5763 14.6197 15.9503L14.4067 17.2313C14.3167 17.7743 13.8467 18.1713 13.2967 18.1713H10.7027C10.1527 18.1713 9.68372 17.7733 9.59272 17.2313L9.37972 15.9503C9.31772 15.5763 9.06772 15.2643 8.73572 15.0803C8.66157 15.0394 8.58822 14.9971 8.51572 14.9533C8.19072 14.7573 7.79572 14.6963 7.43972 14.8293L6.22272 15.2853C5.97345 15.3788 5.69908 15.3809 5.44842 15.2912C5.19775 15.2015 4.98703 15.0258 4.85372 14.7953L3.55672 12.5483C3.42366 12.3176 3.37676 12.0472 3.42437 11.7852C3.47198 11.5231 3.61101 11.2865 3.81672 11.1173L4.82072 10.2903C5.11272 10.0503 5.25772 9.67733 5.25072 9.29933C5.24915 9.21433 5.24915 9.12932 5.25072 9.04433C5.25772 8.66433 5.11272 8.29333 4.82072 8.05233L3.81672 7.22533C3.61126 7.05622 3.47239 6.81976 3.42479 6.55795C3.37719 6.29614 3.42393 6.02593 3.55672 5.79533L4.85372 3.54833C4.9869 3.31746 5.19773 3.14138 5.44863 3.05146C5.69953 2.96154 5.97421 2.96362 6.22372 3.05733L7.43972 3.51333C7.79572 3.64633 8.19072 3.58533 8.51572 3.38933C8.58772 3.34533 8.66172 3.30333 8.73572 3.26133C9.06772 3.07833 9.31772 2.76633 9.37972 2.39233L9.59372 1.11133Z" stroke="#BEBEBE" stroke-width="1.2" stroke-linecap="round" stroke-linejoin="round"/>
<path d="M15 9.17133C15 9.96698 14.6839 10.73 14.1213 11.2926C13.5587 11.8553 12.7956 12.1713 12 12.1713C11.2044 12.1713 10.4413 11.8553 9.87868 11.2926C9.31607 10.73 9 9.96698 9 9.17133C9 8.37568 9.31607 7.61261 9.87868 7.05C10.4413 6.4874 11.2044 6.17133 12 6.17133C12.7956 6.17133 13.5587 6.4874 14.1213 7.05C14.6839 7.61261 15 8.37568 15 9.17133Z" stroke="#5E5E5E" stroke-width="1.2" stroke-linecap="round" stroke-linejoin="round"/>
</g>
<defs>
<clipPath id="clip0_428_5206">
<rect width="24" height="24" fill="white" transform="translate(0 0.237732)"/>
</clipPath>
</defs>
</svg>
