<svg width="16" height="17" viewBox="0 0 16 17" fill="none" xmlns="http://www.w3.org/2000/svg">
<path d="M8 10.9219C8.53043 10.9219 9.03914 10.7112 9.41421 10.3361C9.78929 9.96102 10 9.45231 10 8.92188C10 8.39144 9.78929 7.88273 9.41421 7.50766C9.03914 7.13259 8.53043 6.92188 8 6.92188C7.46957 6.92188 6.96086 7.13259 6.58579 7.50766C6.21071 7.88273 6 8.39144 6 8.92188C6 9.45231 6.21071 9.96102 6.58579 10.3361C6.96086 10.7112 7.46957 10.9219 8 10.9219Z" fill="#28293D" fill-opacity="0.5"/>
<path fill-rule="evenodd" clip-rule="evenodd" d="M0.881725 8.55321C1.87373 5.57254 4.68506 3.42188 8.00039 3.42188C11.3137 3.42188 14.1237 5.57054 15.1171 8.54854C15.1971 8.78988 15.1971 9.04988 15.1171 9.29054C14.1257 12.2712 11.3137 14.4219 7.99906 14.4219C4.68572 14.4219 1.87506 12.2732 0.882392 9.29521C0.802224 9.05437 0.802224 8.79405 0.882392 8.55321H0.881725ZM11.4997 8.92188C11.4997 9.85013 11.131 10.7404 10.4746 11.3967C9.81822 12.0531 8.92798 12.4219 7.99972 12.4219C7.07147 12.4219 6.18123 12.0531 5.52485 11.3967C4.86847 10.7404 4.49973 9.85013 4.49973 8.92188C4.49973 7.99362 4.86847 7.10338 5.52485 6.447C6.18123 5.79062 7.07147 5.42188 7.99972 5.42188C8.92798 5.42188 9.81822 5.79062 10.4746 6.447C11.131 7.10338 11.4997 7.99362 11.4997 8.92188Z" fill="#28293D" fill-opacity="0.5"/>
</svg>
