<svg width="16" height="17" viewBox="0 0 16 17" fill="none" xmlns="http://www.w3.org/2000/svg">
<path d="M9.99935 8.92188H6.66602" stroke="#85868D" stroke-linecap="round" stroke-linejoin="round"/>
<path d="M9.99935 6.25586H6.66602" stroke="#85868D" stroke-linecap="round" stroke-linejoin="round"/>
<path d="M12.666 12.2552V4.25521C12.666 3.90159 12.5255 3.56245 12.2755 3.3124C12.0254 3.06235 11.6863 2.92188 11.3327 2.92188H2.66602" stroke="#85868D" stroke-linecap="round" stroke-linejoin="round"/>
<path d="M5.33398 14.9219H13.334C13.6876 14.9219 14.0267 14.7814 14.2768 14.5314C14.5268 14.2813 14.6673 13.9422 14.6673 13.5885V12.9219C14.6673 12.7451 14.5971 12.5755 14.4721 12.4505C14.347 12.3254 14.1775 12.2552 14.0007 12.2552H7.33398C7.15717 12.2552 6.9876 12.3254 6.86258 12.4505C6.73756 12.5755 6.66732 12.7451 6.66732 12.9219V13.5885C6.66732 13.9422 6.52684 14.2813 6.27679 14.5314C6.02674 14.7814 5.68761 14.9219 5.33398 14.9219ZM5.33398 14.9219C4.98036 14.9219 4.64122 14.7814 4.39118 14.5314C4.14113 14.2813 4.00065 13.9422 4.00065 13.5885V4.25521C4.00065 3.90159 3.86018 3.56245 3.61013 3.3124C3.36008 3.06235 3.02094 2.92188 2.66732 2.92188C2.3137 2.92188 1.97456 3.06235 1.72451 3.3124C1.47446 3.56245 1.33398 3.90159 1.33398 4.25521V5.58854C1.33398 5.76535 1.40422 5.93492 1.52925 6.05995C1.65427 6.18497 1.82384 6.25521 2.00065 6.25521H4.00065" stroke="#85868D" stroke-linecap="round" stroke-linejoin="round"/>
</svg>
