<svg width="20" height="21" viewBox="0 0 20 21" fill="none" xmlns="http://www.w3.org/2000/svg">
<path d="M17.5 5.83803L15.8333 7.50469L14.5833 4.42136C14.4655 4.10581 14.2547 3.83338 13.9789 3.63999C13.7031 3.44659 13.3752 3.34132 13.0383 3.33803H7C6.66042 3.33023 6.32656 3.42637 6.04314 3.61358C5.75972 3.80079 5.54026 4.07013 5.41417 4.38552L4.16667 7.50469L2.5 5.83803" stroke="#5E5E5E" stroke-width="1.2" stroke-linecap="round" stroke-linejoin="round"/>
<path d="M5.83398 10.8376H5.84232" stroke="#BEBEBE" stroke-width="1.2" stroke-linecap="round" stroke-linejoin="round"/>
<path d="M14.166 10.8376H14.1743" stroke="#BEBEBE" stroke-width="1.2" stroke-linecap="round" stroke-linejoin="round"/>
<path d="M15.8333 7.50555H4.16667C3.24619 7.50555 2.5 8.25175 2.5 9.17222V12.5056C2.5 13.426 3.24619 14.1722 4.16667 14.1722H15.8333C16.7538 14.1722 17.5 13.426 17.5 12.5056V9.17222C17.5 8.25175 16.7538 7.50555 15.8333 7.50555Z" stroke="#BEBEBE" stroke-width="1.2" stroke-linecap="round" stroke-linejoin="round"/>
<path d="M4.16602 14.1716V15.8382" stroke="#BEBEBE" stroke-width="1.2" stroke-linecap="round" stroke-linejoin="round"/>
<path d="M15.834 14.1716V15.8382" stroke="#BEBEBE" stroke-width="1.2" stroke-linecap="round" stroke-linejoin="round"/>
</svg>
