<svg width="20" height="20" viewBox="0 0 20 20" fill="none" xmlns="http://www.w3.org/2000/svg">
<path d="M12.5004 10H8.33374" stroke="#171302" stroke-width="1.2" stroke-linecap="round" stroke-linejoin="round"/>
<path d="M12.5004 6.66687H8.33374" stroke="#171302" stroke-width="1.2" stroke-linecap="round" stroke-linejoin="round"/>
<path d="M15.8337 14.1667V4.16667C15.8337 3.72464 15.6581 3.30072 15.3456 2.98816C15.033 2.67559 14.6091 2.5 14.1671 2.5H3.33374" stroke="#171302" stroke-width="1.2" stroke-linecap="round" stroke-linejoin="round"/>
<path d="M6.66626 17.5H16.6663C17.1083 17.5 17.5322 17.3244 17.8448 17.0118C18.1573 16.6993 18.3329 16.2754 18.3329 15.8333V15C18.3329 14.779 18.2451 14.567 18.0888 14.4107C17.9326 14.2545 17.7206 14.1667 17.4996 14.1667H9.16626C8.94525 14.1667 8.73328 14.2545 8.577 14.4107C8.42072 14.567 8.33293 14.779 8.33293 15V15.8333C8.33293 16.2754 8.15733 16.6993 7.84477 17.0118C7.53221 17.3244 7.10829 17.5 6.66626 17.5ZM6.66626 17.5C6.22423 17.5 5.80031 17.3244 5.48775 17.0118C5.17519 16.6993 4.99959 16.2754 4.99959 15.8333V4.16667C4.99959 3.72464 4.824 3.30072 4.51144 2.98816C4.19888 2.67559 3.77495 2.5 3.33293 2.5C2.8909 2.5 2.46698 2.67559 2.15442 2.98816C1.84185 3.30072 1.66626 3.72464 1.66626 4.16667V5.83333C1.66626 6.05435 1.75406 6.26631 1.91034 6.42259C2.06662 6.57887 2.27858 6.66667 2.49959 6.66667H4.99959" stroke="#171302" stroke-width="1.2" stroke-linecap="round" stroke-linejoin="round"/>
</svg>
