<svg width="20" height="20" viewBox="0 0 20 20" fill="none" xmlns="http://www.w3.org/2000/svg">
<path d="M15.8333 8.33331H4.16667C3.24619 8.33331 2.5 9.07951 2.5 9.99998V13.3333C2.5 14.2538 3.24619 15 4.16667 15H15.8333C16.7538 15 17.5 14.2538 17.5 13.3333V9.99998C17.5 9.07951 16.7538 8.33331 15.8333 8.33331Z" stroke="#171302" stroke-width="1.2" stroke-linecap="round" stroke-linejoin="round"/>
<path d="M17.5 6.66713L15.8333 8.33379L14.5833 5.25046C14.4654 4.93491 14.2547 4.66248 13.9789 4.46909C13.7031 4.2757 13.3752 4.17042 13.0383 4.16713H7C6.66042 4.15933 6.32656 4.25547 6.04314 4.44268C5.75972 4.62989 5.54026 4.89923 5.41417 5.21463L4.16667 8.33379L2.5 6.66713" stroke="#171302" stroke-width="1.2" stroke-linecap="round" stroke-linejoin="round"/>
<path d="M5.83374 11.6669H5.84374" stroke="#171302" stroke-width="1.5" stroke-linecap="round" stroke-linejoin="round"/>
<path d="M14.1663 11.6669H14.1763" stroke="#171302" stroke-width="1.5" stroke-linecap="round" stroke-linejoin="round"/>
<path d="M4.16626 15V16.6667" stroke="#171302" stroke-width="1.2" stroke-linecap="round" stroke-linejoin="round"/>
<path d="M15.8337 15V16.6667" stroke="#171302" stroke-width="1.2" stroke-linecap="round" stroke-linejoin="round"/>
</svg>
