<svg width="12" height="12" viewBox="0 0 12 12" fill="none" xmlns="http://www.w3.org/2000/svg">
<path fill-rule="evenodd" clip-rule="evenodd" d="M2.62438 4.5C2.62438 3.60489 2.97996 2.74645 3.61289 2.11351C4.24583 1.48058 5.10427 1.125 5.99938 1.125C6.89448 1.125 7.75293 1.48058 8.38586 2.11351C9.0188 2.74645 9.37438 3.60489 9.37438 4.5V4.875C9.37438 5.9365 9.77438 6.9035 10.4334 7.635C10.4744 7.68049 10.5037 7.73535 10.5186 7.79478C10.5336 7.85421 10.5337 7.91639 10.5191 7.97589C10.5044 8.03539 10.4754 8.09039 10.4346 8.13609C10.3938 8.18178 10.3424 8.21677 10.2849 8.238C9.51288 8.523 8.70488 8.733 7.86938 8.8595C7.88819 9.11657 7.85379 9.37476 7.76834 9.61794C7.68289 9.86112 7.54822 10.0841 7.37273 10.2729C7.19724 10.4617 6.98472 10.6123 6.74842 10.7152C6.51212 10.8182 6.25713 10.8713 5.99938 10.8713C5.74162 10.8713 5.48663 10.8182 5.25033 10.7152C5.01404 10.6123 4.80151 10.4617 4.62602 10.2729C4.45054 10.0841 4.31586 9.86112 4.23041 9.61794C4.14496 9.37476 4.11056 9.11657 4.12938 8.8595C3.3052 8.7346 2.49587 8.5262 1.71388 8.2375C1.65644 8.2163 1.60507 8.18135 1.56426 8.13573C1.52344 8.0901 1.49441 8.03517 1.47972 7.97573C1.46502 7.9163 1.4651 7.85418 1.47994 7.79478C1.49479 7.73539 1.52395 7.68053 1.56488 7.635C2.24828 6.87834 2.62592 5.8946 2.62438 4.875V4.5ZM4.87538 8.95C4.86898 9.10159 4.89332 9.25292 4.94692 9.39486C5.00052 9.53681 5.08228 9.66644 5.18729 9.77597C5.29229 9.8855 5.41836 9.97265 5.55792 10.0322C5.69748 10.0917 5.84765 10.1224 5.99938 10.1224C6.15111 10.1224 6.30127 10.0917 6.44083 10.0322C6.58039 9.97265 6.70646 9.8855 6.81147 9.77597C6.91647 9.66644 6.99823 9.53681 7.05183 9.39486C7.10544 9.25292 7.12977 9.10159 7.12338 8.95C6.37556 9.01736 5.6232 9.01736 4.87538 8.95Z" fill="#28293D"/>
</svg>
