<svg width="20" height="21" viewBox="0 0 20 21" fill="none" xmlns="http://www.w3.org/2000/svg">
<g clip-path="url(#clip0_428_5210)">
<path d="M12.5007 8.17114H8.33398" stroke="#5E5E5E" stroke-width="1.2" stroke-linecap="round" stroke-linejoin="round"/>
<path d="M12.5007 4.83716H8.33398" stroke="#5E5E5E" stroke-width="1.2" stroke-linecap="round" stroke-linejoin="round"/>
<path d="M15.834 12.3378V2.33781C15.834 1.89578 15.6584 1.47186 15.3458 1.1593C15.0333 0.846737 14.6093 0.671143 14.1673 0.671143H3.33398" stroke="#BEBEBE" stroke-width="1.2" stroke-linecap="round" stroke-linejoin="round"/>
<path d="M6.66602 15.6711H16.666C17.108 15.6711 17.532 15.4955 17.8445 15.183C18.1571 14.8704 18.3327 14.4465 18.3327 14.0045V13.1711C18.3327 12.9501 18.2449 12.7382 18.0886 12.5819C17.9323 12.4256 17.7204 12.3378 17.4993 12.3378H9.16602C8.945 12.3378 8.73304 12.4256 8.57676 12.5819C8.42048 12.7382 8.33268 12.9501 8.33268 13.1711V14.0045C8.33268 14.4465 8.15709 14.8704 7.84453 15.183C7.53197 15.4955 7.10804 15.6711 6.66602 15.6711ZM6.66602 15.6711C6.22399 15.6711 5.80006 15.4955 5.4875 15.183C5.17494 14.8704 4.99935 14.4465 4.99935 14.0045V2.33781C4.99935 1.89578 4.82375 1.47186 4.51119 1.1593C4.19863 0.846737 3.77471 0.671143 3.33268 0.671143C2.89065 0.671143 2.46673 0.846737 2.15417 1.1593C1.84161 1.47186 1.66602 1.89578 1.66602 2.33781V4.00448C1.66602 4.22549 1.75381 4.43745 1.91009 4.59373C2.06637 4.75001 2.27834 4.83781 2.49935 4.83781H4.99935" stroke="#BEBEBE" stroke-width="1.2" stroke-linecap="round" stroke-linejoin="round"/>
</g>
<defs>
<clipPath id="clip0_428_5210">
<rect width="20" height="20" fill="white" transform="translate(0 0.346924)"/>
</clipPath>
</defs>
</svg>
