<svg width="20" height="21" viewBox="0 0 20 21" fill="none" xmlns="http://www.w3.org/2000/svg">
<g clip-path="url(#clip0_428_5216)">
<path d="M8.33268 10.6712H4.99935C4.11529 10.6712 3.26745 11.0224 2.64233 11.6475C2.01721 12.2726 1.66602 13.1205 1.66602 14.0045V15.6712" stroke="#BEBEBE" stroke-width="1.2" stroke-linecap="round" stroke-linejoin="round"/>
<path d="M11.9199 11.9466L12.6891 11.6282" stroke="#5E5E5E" stroke-width="1.2" stroke-linecap="round" stroke-linejoin="round"/>
<path d="M12.6891 9.71498L11.9199 9.39581" stroke="#5E5E5E" stroke-width="1.2" stroke-linecap="round" stroke-linejoin="round"/>
<path d="M14.0438 8.36029L13.7246 7.59113" stroke="#5E5E5E" stroke-width="1.2" stroke-linecap="round" stroke-linejoin="round"/>
<path d="M14.0438 12.9818L13.7246 13.7518" stroke="#5E5E5E" stroke-width="1.2" stroke-linecap="round" stroke-linejoin="round"/>
<path d="M15.957 8.36029L16.2762 7.59113" stroke="#5E5E5E" stroke-width="1.2" stroke-linecap="round" stroke-linejoin="round"/>
<path d="M16.2754 13.7518L15.957 12.9818" stroke="#5E5E5E" stroke-width="1.2" stroke-linecap="round" stroke-linejoin="round"/>
<path d="M17.3105 9.71498L18.0805 9.39581" stroke="#5E5E5E" stroke-width="1.2" stroke-linecap="round" stroke-linejoin="round"/>
<path d="M17.3105 11.6282L18.0805 11.9474" stroke="#5E5E5E" stroke-width="1.2" stroke-linecap="round" stroke-linejoin="round"/>
<path d="M15 13.1712C16.3807 13.1712 17.5 12.0519 17.5 10.6712C17.5 9.29049 16.3807 8.1712 15 8.1712C13.6193 8.1712 12.5 9.29049 12.5 10.6712C12.5 12.0519 13.6193 13.1712 15 13.1712Z" stroke="#5E5E5E" stroke-width="1.2" stroke-linecap="round" stroke-linejoin="round"/>
<path d="M7.49935 7.33787C9.3403 7.33787 10.8327 5.84549 10.8327 4.00454C10.8327 2.16359 9.3403 0.671204 7.49935 0.671204C5.6584 0.671204 4.16602 2.16359 4.16602 4.00454C4.16602 5.84549 5.6584 7.33787 7.49935 7.33787Z" stroke="#BEBEBE" stroke-width="1.2" stroke-linecap="round" stroke-linejoin="round"/>
</g>
<defs>
<clipPath id="clip0_428_5216">
<rect width="20" height="20" fill="white" transform="translate(0 0.792297)"/>
</clipPath>
</defs>
</svg>
