<svg width="20" height="21" viewBox="0 0 20 21" fill="none" xmlns="http://www.w3.org/2000/svg">
<g clip-path="url(#clip0_428_5237)">
<path d="M17 7.17139L16.5 17.1714H12V12.1714H8V17.1714H3V7.17139L10 1.67139L17 7.17139Z" fill="#141B34" fill-opacity="0.2"/>
<path d="M16.668 7.08936C16.668 10.3764 16.668 15.5063 16.668 15.5063C16.668 16.6108 15.7723 17.5061 14.668 17.5063H12.501V12.6733C12.501 12.1211 12.0532 11.6734 11.501 11.6733H8.50098C7.94869 11.6733 7.50098 12.1211 7.50098 12.6733V17.5063H4.91797C3.8134 17.5063 2.91797 16.6109 2.91797 15.5063C2.91797 15.5063 2.91797 10.6305 2.91797 7.50635" stroke="#141B34"/>
<path d="M18.3327 7.92204L10.7348 1.52376C10.5289 1.35043 10.2684 1.25537 9.99935 1.25537C9.73027 1.25537 9.46977 1.35043 9.26393 1.52376L1.66602 7.92204" stroke="#787878" stroke-width="1.2" stroke-linecap="round" stroke-linejoin="round"/>
</g>
<defs>
<clipPath id="clip0_428_5237">
<rect width="20" height="20" fill="white" transform="translate(0 0.0107422)"/>
</clipPath>
</defs>
</svg>
