<svg width="20" height="20" viewBox="0 0 20 20" fill="none" xmlns="http://www.w3.org/2000/svg">
<path opacity="0.2" d="M3.35449 3.90645C2.1954 3.67645 1.04262 4.53544 1.04248 5.76762V14.1156C1.04258 14.974 1.63237 15.7379 2.48698 15.9263L3.0306 16.041C5.67868 16.5745 7.3201 16.516 8.7614 16.3023C10.3072 16.073 11.4146 15.7164 13.3341 15.7164C14.5535 15.7164 15.6571 15.8505 16.403 15.9915C17.0087 16.07 17.6146 15.8848 18.0761 15.5487C18.5706 15.1887 18.9591 14.6086 18.9591 13.9024V5.7725C18.9591 5.11311 18.5996 4.45444 17.9337 4.18233C17.0911 3.92122 15.4656 3.54187 13.3341 3.54187C11.3611 3.54187 10.0504 3.91012 8.72965 4.11805C7.49274 4.31276 6.09939 4.40301 3.82161 3.99516L3.35449 3.90645Z" fill="#171302"/>
<path d="M12.5 10C12.5 11.3807 11.3807 12.5 10 12.5C8.61926 12.5 7.5 11.3807 7.5 10C7.5 8.61925 8.61926 7.5 10 7.5C11.3807 7.5 12.5 8.61925 12.5 10Z" fill="#171302"/>
<path d="M1.04248 12.2491C3.04625 12.6764 4.6203 14.3087 4.93001 16.3482C4.35701 16.2819 3.72876 16.1829 3.0306 16.0422L2.48698 15.9275C1.63237 15.7391 1.04258 14.9752 1.04248 14.1168V12.2491Z" fill="#171302"/>
<path d="M18.9583 13.902C18.9582 14.6082 18.5697 15.1883 18.0753 15.5483C17.6137 15.8844 17.0079 16.0696 16.4022 15.9911C16.1082 15.9356 15.7588 15.8812 15.3687 15.8356C15.8422 14.18 17.234 12.9131 18.9583 12.6202V13.902Z" fill="#171302"/>
<path d="M15.4565 3.66882C16.5497 3.80261 17.3986 4.01596 17.9329 4.18151C18.5988 4.45362 18.9582 5.1123 18.9583 5.77169V7.67192C17.0781 7.23287 15.6445 5.63347 15.4565 3.66882Z" fill="#171302"/>
<path d="M1.04248 5.76873C1.04262 4.53655 2.1954 3.67756 3.35449 3.90756L3.82161 3.99627C4.11036 4.04797 4.38501 4.0908 4.64681 4.12729C4.22533 5.82961 2.80503 7.13667 1.04248 7.38982V5.76873Z" fill="#171302"/>
</svg>
